<?xml version="1.0" encoding="utf-8"?><svg viewBox="0 0 32 32" xmlns="http://www.w3.org/2000/svg" xmlns:xlink="http://www.w3.org/1999/xlink"><style>:root>svg{display:none}:root>svg:target{display:block}</style><svg fill="none" viewBox="0 0 18 18" id="icon-arrow-next" xmlns="http://www.w3.org/2000/svg"><path d="M13.732 10.136H0v-2.25h13.732L6.866 1h3.146L18 9.01 10.033 17H6.887l6.845-6.864z" fill="currentColor"/></svg><svg fill="none" viewBox="0 0 18 20" id="icon-arrow-point" xmlns="http://www.w3.org/2000/svg"><path d="M3 15a1 1 0 01-1-1V2h2v11h9.341L8.5 8H11l6 6.008L11 20H8.5l4.856-5H3z" fill="currentColor"/></svg><svg fill="none" viewBox="0 0 16 17" id="icon-arrow-top-right" xmlns="http://www.w3.org/2000/svg"><path d="M12.175 5.786l-8.937 8.936-1.46-1.46 8.937-8.936H1.777l2.048-2.048h10.396v10.37l-2.047 2.047v-8.91z" fill="currentColor"/></svg><svg fill="none" viewBox="0 0 32 32" id="icon-attach" xmlns="http://www.w3.org/2000/svg"><path fill-rule="evenodd" clip-rule="evenodd" d="M8 8a8 8 0 1116 0v17a1 1 0 11-2 0V8a6 6 0 00-12 0v18a4 4 0 008 0V10a2 2 0 10-4 0v11a1 1 0 11-2 0V10a4 4 0 018 0v16a6 6 0 01-12 0V8z" fill="currentColor"/></svg></svg>