<?xml version="1.0" encoding="utf-8"?><svg viewBox="0 0 32 32" xmlns="http://www.w3.org/2000/svg" xmlns:xlink="http://www.w3.org/1999/xlink"><style>:root>svg{display:none}:root>svg:target{display:block}</style><svg fill="none" viewBox="0 0 18 18" id="icon-arrow-next" xmlns="http://www.w3.org/2000/svg"><path d="M13.732 10.136H0v-2.25h13.732L6.866 1h3.146L18 9.01 10.033 17H6.887l6.845-6.864z" fill="currentColor"/></svg><svg fill="none" viewBox="0 0 18 20" id="icon-arrow-point" xmlns="http://www.w3.org/2000/svg"><path d="M3 15a1 1 0 01-1-1V2h2v11h9.341L8.5 8H11l6 6.008L11 20H8.5l4.856-5H3z" fill="currentColor"/></svg><svg fill="none" viewBox="0 0 10 10" id="icon-arrow-prev" xmlns="http://www.w3.org/2000/svg"><path d="M2.371 5.631H10V4.38H2.371L6.186.556H4.438L0 5.006l4.426 4.439h1.748L2.37 5.63z" fill="currentColor"/></svg><svg fill="none" viewBox="0 0 10 10" id="icon-arrow-top-left" xmlns="http://www.w3.org/2000/svg"><path d="M2.39 3.303L7.977 8.89l.913-.913-5.586-5.585H8.89l-1.28-1.28H1.111v6.481l1.28 1.28V3.303z" fill="currentColor"/></svg><svg fill="none" viewBox="0 0 16 17" id="icon-arrow-top-right" xmlns="http://www.w3.org/2000/svg"><path d="M12.175 5.786l-8.937 8.936-1.46-1.46 8.937-8.936H1.777l2.048-2.048h10.396v10.37l-2.047 2.047v-8.91z" fill="currentColor"/></svg><svg fill="none" viewBox="0 0 32 32" id="icon-attach" xmlns="http://www.w3.org/2000/svg"><path fill-rule="evenodd" clip-rule="evenodd" d="M8 8a8 8 0 1116 0v17a1 1 0 11-2 0V8a6 6 0 00-12 0v18a4 4 0 008 0V10a2 2 0 10-4 0v11a1 1 0 11-2 0V10a4 4 0 018 0v16a6 6 0 01-12 0V8z" fill="currentColor"/></svg><svg fill="none" viewBox="0 0 7 6" id="icon-caret" xmlns="http://www.w3.org/2000/svg"><path d="M0 .5h7l-3.5 5L0 .5z" fill="currentColor"/></svg><svg fill="none" viewBox="0 0 10 10" id="icon-check-list" xmlns="http://www.w3.org/2000/svg"><path fill-rule="evenodd" clip-rule="evenodd" d="M8.93 1.654a1 1 0 00-1.393.125L3.9 6.076l-1.438-1.7a1 1 0 00-1.393-.124.964.964 0 00-.127 1.372L3.141 8.22c.188.222.467.35.76.35a.995.995 0 00.76-.35l4.395-5.195a.964.964 0 00-.126-1.372z" fill="#999"/></svg><svg fill="none" viewBox="0 0 14 14" id="icon-plus" xmlns="http://www.w3.org/2000/svg"><path d="M7.778 6.222V0H6.222v6.222H0v1.556h6.222V14h1.556V7.778H14V6.222H7.778z" fill="currentColor"/></svg></svg>